# MagicaVoxel @ Ephtracy

# group
o 

# material
mtllib tree2.mtl
usemtl palette

# normals
vn -1 0 0
vn 1 0 0
vn 0 0 1
vn 0 0 -1
vn 0 -1 0
vn 0 1 0

# texcoords
vt 0.673828 0.5
vt 0.677734 0.5
vt 0.912109 0.5

# verts
v -3 3.5 1.8
v -3 3.5 -2
v -3 5.1 -2
v -3 5.1 -3
v -3 5.9 3
v -3 5.9 1.8
v -3 7.9 3
v -3 7.9 1.1
v -3 8 -1.7
v -3 8 -3
v -3 8.7 1.1
v -3 8.7 -1.7
v -2 3.5 3
v -2 3.5 1.8
v -2 5.9 3
v -2 5.9 1.8
v -1.7 7.9 3
v -1.7 7.9 1.1
v -1.7 8.7 3
v -1.7 8.7 1.1
v -1.6 8 -1.7
v -1.6 8 -3
v -1.6 8.7 -1.7
v -1.6 8.7 -3
v -1.5 3.5 -2
v -1.5 3.5 -3
v -1.5 5.1 -2
v -1.5 5.1 -3
v -0.4 0 0.4
v -0.4 0 -0.4
v -0.4 0.5 0.2
v -0.4 0.5 0.0999999
v -0.4 0.6 0.2
v -0.4 0.6 0.0999999
v -0.4 0.6 -0.1
v -0.4 0.7 0.0999999
v -0.4 0.7 -0.1
v -0.4 0.7 -0.2
v -0.4 0.8 -0.1
v -0.4 0.8 -0.2
v -0.4 1.2 -0.2
v -0.4 1.2 -0.3
v -0.4 1.4 -0.1
v -0.4 1.4 -0.2
v -0.4 1.4 -0.3
v -0.4 1.6 -2.38419e-007
v -0.4 1.6 -0.1
v -0.4 1.6 -0.2
v -0.4 1.7 -2.38419e-007
v -0.4 1.7 -0.1
v -0.4 2.2 0.0999999
v -0.4 2.2 -2.38419e-007
v -0.4 2.4 0.2
v -0.4 2.4 0.0999999
v -0.4 2.4 -2.38419e-007
v -0.4 2.6 0.2
v -0.4 2.6 0.0999999
v -0.4 3.5 0.4
v -0.4 3.5 -0.4
v 0.4 0 0.4
v 0.4 0 -0.4
v 0.4 1.9 0.0999999
v 0.4 1.9 -2.38419e-007
v 0.4 2.1 0.0999999
v 0.4 2.1 -2.38419e-007
v 0.4 2.1 -0.1
v 0.4 2.3 -2.38419e-007
v 0.4 2.3 -0.1
v 0.4 3.5 0.4
v 0.4 3.5 -0.4
v 1.1 7.8 3
v 1.1 7.8 2.1
v 1.1 8.7 3
v 1.1 8.7 2.1
v 1.5 3.5 3
v 1.5 3.5 1.6
v 1.5 4.8 3
v 1.5 4.8 1.6
v 1.9 3.5 -1.6
v 1.9 3.5 -3
v 1.9 4.6 -1.6
v 1.9 4.6 -3
v 2.1 7.7 -0.1
v 2.1 7.7 -3
v 2.1 8.7 -0.1
v 2.1 8.7 -3
v 3 3.5 1.6
v 3 3.5 -1.6
v 3 4.6 -1.6
v 3 4.6 -3
v 3 4.8 3
v 3 4.8 1.6
v 3 7.7 -0.1
v 3 7.7 -3
v 3 7.8 3
v 3 7.8 2.1
v 3 8.7 2.1
v 3 8.7 -0.1
v -3 5.9 3
v -3 7.9 3
v -2 3.5 3
v -2 5.9 3
v -1.7 7.9 3
v -1.7 8.7 3
v 1.1 7.8 3
v 1.1 8.7 3
v 1.5 3.5 3
v 1.5 4.8 3
v 3 4.8 3
v 3 7.8 3
v 1.1 7.8 2.1
v 1.1 8.7 2.1
v 3 7.8 2.1
v 3 8.7 2.1
v -3 3.5 1.8
v -3 5.9 1.8
v -2 3.5 1.8
v -2 5.9 1.8
v 1.5 3.5 1.6
v 1.5 4.8 1.6
v 3 3.5 1.6
v 3 4.8 1.6
v -3 7.9 1.1
v -3 8.7 1.1
v -1.7 7.9 1.1
v -1.7 8.7 1.1
v -0.4 0 0.4
v -0.4 3.5 0.4
v -0.0999999 1 0.4
v -0.0999999 1.2 0.4
v -0.0999999 1.6 0.4
v -0.0999999 1.9 0.4
v -0.0999999 2.2 0.4
v -0.0999999 2.4 0.4
v 2.38419e-007 1 0.4
v 2.38419e-007 1.2 0.4
v 2.38419e-007 1.4 0.4
v 2.38419e-007 1.6 0.4
v 2.38419e-007 1.9 0.4
v 2.38419e-007 2.2 0.4
v 2.38419e-007 2.4 0.4
v 0.1 1.2 0.4
v 0.1 1.4 0.4
v 0.4 0 0.4
v 0.4 3.5 0.4
v 2.1 7.7 -0.1
v 2.1 8.7 -0.1
v 3 7.7 -0.1
v 3 8.7 -0.1
v -0.4 0 -0.4
v -0.4 3.5 -0.4
v -0.0999999 0.6 -0.4
v -0.0999999 0.8 -0.4
v -0.0999999 2.3 -0.4
v -0.0999999 2.5 -0.4
v 2.38419e-007 0.6 -0.4
v 2.38419e-007 0.8 -0.4
v 2.38419e-007 1 -0.4
v 2.38419e-007 1.7 -0.4
v 2.38419e-007 2 -0.4
v 2.38419e-007 2.3 -0.4
v 2.38419e-007 2.5 -0.4
v 2.38419e-007 2.8 -0.4
v 2.38419e-007 2.9 -0.4
v 0.1 0.8 -0.4
v 0.1 1 -0.4
v 0.1 1.4 -0.4
v 0.1 1.7 -0.4
v 0.1 2 -0.4
v 0.1 2.8 -0.4
v 0.1 2.9 -0.4
v 0.1 3 -0.4
v 0.2 1.4 -0.4
v 0.2 1.7 -0.4
v 0.3 2.9 -0.4
v 0.3 3 -0.4
v 0.4 0 -0.4
v 0.4 3.5 -0.4
v 1.9 3.5 -1.6
v 1.9 4.6 -1.6
v 3 3.5 -1.6
v 3 4.6 -1.6
v -3 8 -1.7
v -3 8.7 -1.7
v -1.6 8 -1.7
v -1.6 8.7 -1.7
v -3 3.5 -2
v -3 5.1 -2
v -1.5 3.5 -2
v -1.5 5.1 -2
v -3 5.1 -3
v -3 8 -3
v -1.6 8 -3
v -1.6 8.7 -3
v -1.5 3.5 -3
v -1.5 5.1 -3
v 1.9 3.5 -3
v 1.9 4.6 -3
v 2.1 7.7 -3
v 2.1 8.7 -3
v 3 4.6 -3
v 3 7.7 -3
v -0.4 0 0.4
v 0.4 0 0.4
v -0.4 0 -0.4
v 0.4 0 -0.4
v -2 3.5 3
v 1.5 3.5 3
v -3 3.5 1.8
v -2 3.5 1.8
v 1.5 3.5 1.6
v 3 3.5 1.6
v -0.4 3.5 0.4
v 0.4 3.5 0.4
v -0.4 3.5 -0.4
v 0.4 3.5 -0.4
v 1.9 3.5 -1.6
v 3 3.5 -1.6
v -3 3.5 -2
v -1.5 3.5 -2
v -1.5 3.5 -3
v 1.9 3.5 -3
v 1.9 4.6 -1.6
v 3 4.6 -1.6
v 1.9 4.6 -3
v 3 4.6 -3
v 1.5 4.8 3
v 3 4.8 3
v 1.5 4.8 1.6
v 3 4.8 1.6
v -3 5.1 -2
v -1.5 5.1 -2
v -3 5.1 -3
v -1.5 5.1 -3
v -3 5.9 3
v -2 5.9 3
v -3 5.9 1.8
v -2 5.9 1.8
v 2.1 7.7 -0.1
v 3 7.7 -0.1
v 2.1 7.7 -3
v 3 7.7 -3
v 1.1 7.8 3
v 3 7.8 3
v 1.1 7.8 2.1
v 3 7.8 2.1
v -3 7.9 3
v -1.7 7.9 3
v -3 7.9 1.1
v -1.7 7.9 1.1
v -3 8 -1.7
v -1.6 8 -1.7
v -3 8 -3
v -1.6 8 -3
v -1.7 8.7 3
v 1.1 8.7 3
v 1.1 8.7 2.1
v 3 8.7 2.1
v -3 8.7 1.1
v -1.7 8.7 1.1
v 2.1 8.7 -0.1
v 3 8.7 -0.1
v -3 8.7 -1.7
v -1.6 8.7 -1.7
v -1.6 8.7 -3
v 2.1 8.7 -3

# faces
f 3/3/1 2/3/1 1/3/1
f 6/3/1 3/3/1 1/3/1
f 6/3/1 4/3/1 3/3/1
f 7/3/1 6/3/1 5/3/1
f 8/3/1 4/3/1 6/3/1
f 8/3/1 6/3/1 7/3/1
f 9/3/1 4/3/1 8/3/1
f 10/3/1 4/3/1 9/3/1
f 11/3/1 9/3/1 8/3/1
f 12/3/1 9/3/1 11/3/1
f 15/3/1 14/3/1 13/3/1
f 16/3/1 14/3/1 15/3/1
f 19/3/1 18/3/1 17/3/1
f 20/3/1 18/3/1 19/3/1
f 23/3/1 22/3/1 21/3/1
f 24/3/1 22/3/1 23/3/1
f 27/3/1 26/3/1 25/3/1
f 28/3/1 26/3/1 27/3/1
f 31/2/1 30/2/1 29/2/1
f 32/2/1 30/2/1 31/2/1
f 33/2/1 31/2/1 29/2/1
f 33/1/1 32/1/1 31/1/1
f 34/2/1 30/2/1 32/2/1
f 34/1/1 32/1/1 33/1/1
f 35/2/1 30/2/1 34/2/1
f 36/2/1 34/2/1 33/2/1
f 36/1/1 35/1/1 34/1/1
f 37/2/1 30/2/1 35/2/1
f 37/1/1 35/1/1 36/1/1
f 38/2/1 30/2/1 37/2/1
f 39/2/1 37/2/1 36/2/1
f 39/1/1 38/1/1 37/1/1
f 40/2/1 30/2/1 38/2/1
f 40/1/1 38/1/1 39/1/1
f 41/2/1 40/2/1 39/2/1
f 41/2/1 30/2/1 40/2/1
f 42/2/1 30/2/1 41/2/1
f 43/2/1 39/2/1 36/2/1
f 43/2/1 41/2/1 39/2/1
f 44/1/1 42/1/1 41/1/1
f 44/2/1 41/2/1 43/2/1
f 45/2/1 30/2/1 42/2/1
f 45/1/1 42/1/1 44/1/1
f 46/2/1 43/2/1 36/2/1
f 47/1/1 44/1/1 43/1/1
f 47/2/1 43/2/1 46/2/1
f 48/2/1 45/2/1 44/2/1
f 48/1/1 44/1/1 47/1/1
f 49/2/1 46/2/1 36/2/1
f 49/1/1 47/1/1 46/1/1
f 50/2/1 48/2/1 47/2/1
f 50/1/1 47/1/1 49/1/1
f 51/2/1 36/2/1 33/2/1
f 51/2/1 49/2/1 36/2/1
f 51/2/1 50/2/1 49/2/1
f 52/2/1 50/2/1 51/2/1
f 53/2/1 33/2/1 29/2/1
f 53/2/1 51/2/1 33/2/1
f 54/1/1 52/1/1 51/1/1
f 54/2/1 51/2/1 53/2/1
f 55/2/1 50/2/1 52/2/1
f 55/1/1 52/1/1 54/1/1
f 56/1/1 54/1/1 53/1/1
f 56/2/1 53/2/1 29/2/1
f 57/2/1 55/2/1 54/2/1
f 57/1/1 54/1/1 56/1/1
f 58/2/1 56/2/1 29/2/1
f 58/2/1 57/2/1 56/2/1
f 59/2/1 50/2/1 55/2/1
f 59/2/1 57/2/1 58/2/1
f 59/2/1 48/2/1 50/2/1
f 59/2/1 55/2/1 57/2/1
f 59/2/1 30/2/1 45/2/1
f 59/2/1 45/2/1 48/2/1
f 60/2/2 61/2/2 62/2/2
f 62/2/2 61/2/2 63/2/2
f 60/2/2 62/2/2 64/2/2
f 62/1/2 63/1/2 64/1/2
f 63/2/2 61/2/2 65/2/2
f 64/1/2 63/1/2 65/1/2
f 65/2/2 61/2/2 66/2/2
f 64/2/2 65/2/2 67/2/2
f 65/1/2 66/1/2 67/1/2
f 66/2/2 61/2/2 68/2/2
f 67/1/2 66/1/2 68/1/2
f 60/2/2 64/2/2 69/2/2
f 64/2/2 67/2/2 69/2/2
f 67/2/2 68/2/2 69/2/2
f 68/2/2 61/2/2 70/2/2
f 69/2/2 68/2/2 70/2/2
f 71/3/2 72/3/2 73/3/2
f 73/3/2 72/3/2 74/3/2
f 75/3/2 76/3/2 77/3/2
f 77/3/2 76/3/2 78/3/2
f 79/3/2 80/3/2 81/3/2
f 81/3/2 80/3/2 82/3/2
f 83/3/2 84/3/2 85/3/2
f 85/3/2 84/3/2 86/3/2
f 87/3/2 88/3/2 89/3/2
f 87/3/2 89/3/2 92/3/2
f 89/3/2 90/3/2 92/3/2
f 92/3/2 90/3/2 93/3/2
f 91/3/2 92/3/2 93/3/2
f 93/3/2 90/3/2 94/3/2
f 91/3/2 93/3/2 95/3/2
f 95/3/2 93/3/2 96/3/2
f 96/3/2 93/3/2 97/3/2
f 97/3/2 93/3/2 98/3/2
f 102/3/3 100/3/3 99/3/3
f 103/3/3 100/3/3 102/3/3
f 103/3/3 102/3/3 101/3/3
f 105/3/3 103/3/3 101/3/3
f 105/3/3 104/3/3 103/3/3
f 106/3/3 104/3/3 105/3/3
f 107/3/3 105/3/3 101/3/3
f 108/3/3 105/3/3 107/3/3
f 109/3/3 105/3/3 108/3/3
f 110/3/3 105/3/3 109/3/3
f 113/3/3 112/3/3 111/3/3
f 114/3/3 112/3/3 113/3/3
f 117/3/3 116/3/3 115/3/3
f 118/3/3 116/3/3 117/3/3
f 121/3/3 120/3/3 119/3/3
f 122/3/3 120/3/3 121/3/3
f 125/3/3 124/3/3 123/3/3
f 126/3/3 124/3/3 125/3/3
f 129/2/3 128/2/3 127/2/3
f 130/2/3 128/2/3 129/2/3
f 131/2/3 128/2/3 130/2/3
f 132/2/3 128/2/3 131/2/3
f 133/2/3 128/2/3 132/2/3
f 134/2/3 128/2/3 133/2/3
f 135/2/3 129/2/3 127/2/3
f 135/1/3 130/1/3 129/1/3
f 136/2/3 131/2/3 130/2/3
f 136/1/3 130/1/3 135/1/3
f 137/2/3 131/2/3 136/2/3
f 138/1/3 132/1/3 131/1/3
f 138/2/3 131/2/3 137/2/3
f 139/2/3 133/2/3 132/2/3
f 139/1/3 132/1/3 138/1/3
f 140/1/3 134/1/3 133/1/3
f 140/2/3 133/2/3 139/2/3
f 141/2/3 128/2/3 134/2/3
f 141/1/3 134/1/3 140/1/3
f 142/1/3 137/1/3 136/1/3
f 142/2/3 136/2/3 135/2/3
f 143/2/3 140/2/3 139/2/3
f 143/1/3 137/1/3 142/1/3
f 143/2/3 139/2/3 138/2/3
f 143/2/3 141/2/3 140/2/3
f 143/2/3 138/2/3 137/2/3
f 144/2/3 142/2/3 135/2/3
f 144/2/3 135/2/3 127/2/3
f 144/2/3 143/2/3 142/2/3
f 145/2/3 141/2/3 143/2/3
f 145/2/3 143/2/3 144/2/3
f 145/2/3 128/2/3 141/2/3
f 146/3/4 147/3/4 148/3/4
f 148/3/4 147/3/4 149/3/4
f 150/2/4 151/2/4 152/2/4
f 152/2/4 151/2/4 153/2/4
f 153/2/4 151/2/4 154/2/4
f 154/2/4 151/2/4 155/2/4
f 150/2/4 152/2/4 156/2/4
f 152/1/4 153/1/4 156/1/4
f 153/2/4 154/2/4 157/2/4
f 156/1/4 153/1/4 157/1/4
f 157/2/4 154/2/4 158/2/4
f 158/2/4 154/2/4 159/2/4
f 159/2/4 154/2/4 160/2/4
f 154/1/4 155/1/4 161/1/4
f 160/2/4 154/2/4 161/2/4
f 155/2/4 151/2/4 162/2/4
f 161/1/4 155/1/4 162/1/4
f 162/2/4 151/2/4 163/2/4
f 163/2/4 151/2/4 164/2/4
f 156/2/4 157/2/4 165/2/4
f 157/1/4 158/1/4 165/1/4
f 158/2/4 159/2/4 166/2/4
f 165/1/4 158/1/4 166/1/4
f 166/2/4 159/2/4 167/2/4
f 159/1/4 160/1/4 168/1/4
f 167/2/4 159/2/4 168/2/4
f 160/2/4 161/2/4 169/2/4
f 168/1/4 160/1/4 169/1/4
f 161/2/4 162/2/4 169/2/4
f 162/2/4 163/2/4 169/2/4
f 163/1/4 164/1/4 170/1/4
f 169/2/4 163/2/4 170/2/4
f 164/2/4 151/2/4 171/2/4
f 170/1/4 164/1/4 171/1/4
f 171/2/4 151/2/4 172/2/4
f 167/1/4 168/1/4 173/1/4
f 166/2/4 167/2/4 173/2/4
f 165/2/4 166/2/4 173/2/4
f 169/2/4 170/2/4 174/2/4
f 173/1/4 168/1/4 174/1/4
f 168/2/4 169/2/4 174/2/4
f 170/2/4 171/2/4 174/2/4
f 171/1/4 172/1/4 175/1/4
f 174/2/4 171/2/4 175/2/4
f 173/2/4 174/2/4 175/2/4
f 172/2/4 151/2/4 176/2/4
f 175/1/4 172/1/4 176/1/4
f 173/2/4 175/2/4 177/2/4
f 156/2/4 165/2/4 177/2/4
f 175/2/4 176/2/4 177/2/4
f 165/2/4 173/2/4 177/2/4
f 150/2/4 156/2/4 177/2/4
f 176/2/4 151/2/4 178/2/4
f 177/2/4 176/2/4 178/2/4
f 179/3/4 180/3/4 181/3/4
f 181/3/4 180/3/4 182/3/4
f 183/3/4 184/3/4 185/3/4
f 185/3/4 184/3/4 186/3/4
f 187/3/4 188/3/4 189/3/4
f 189/3/4 188/3/4 190/3/4
f 191/3/4 192/3/4 193/3/4
f 191/3/4 193/3/4 196/3/4
f 193/3/4 194/3/4 196/3/4
f 195/3/4 196/3/4 197/3/4
f 197/3/4 196/3/4 198/3/4
f 196/3/4 194/3/4 199/3/4
f 198/3/4 196/3/4 199/3/4
f 199/3/4 194/3/4 200/3/4
f 198/3/4 199/3/4 201/3/4
f 201/3/4 199/3/4 202/3/4
f 205/2/5 204/2/5 203/2/5
f 206/2/5 204/2/5 205/2/5
f 210/3/5 208/3/5 207/3/5
f 211/3/5 208/3/5 210/3/5
f 211/3/5 210/3/5 209/3/5
f 213/3/5 211/3/5 209/3/5
f 213/3/5 212/3/5 211/3/5
f 214/3/5 212/3/5 213/3/5
f 215/3/5 213/3/5 209/3/5
f 216/3/5 212/3/5 214/3/5
f 217/3/5 212/3/5 216/3/5
f 217/3/5 216/3/5 215/3/5
f 218/3/5 212/3/5 217/3/5
f 219/3/5 215/3/5 209/3/5
f 219/3/5 217/3/5 215/3/5
f 220/3/5 217/3/5 219/3/5
f 221/3/5 217/3/5 220/3/5
f 222/3/5 217/3/5 221/3/5
f 225/3/5 224/3/5 223/3/5
f 226/3/5 224/3/5 225/3/5
f 229/3/5 228/3/5 227/3/5
f 230/3/5 228/3/5 229/3/5
f 233/3/5 232/3/5 231/3/5
f 234/3/5 232/3/5 233/3/5
f 237/3/5 236/3/5 235/3/5
f 238/3/5 236/3/5 237/3/5
f 239/3/6 240/3/6 241/3/6
f 241/3/6 240/3/6 242/3/6
f 243/3/6 244/3/6 245/3/6
f 245/3/6 244/3/6 246/3/6
f 247/3/6 248/3/6 249/3/6
f 249/3/6 248/3/6 250/3/6
f 251/3/6 252/3/6 253/3/6
f 253/3/6 252/3/6 254/3/6
f 255/3/6 256/3/6 257/3/6
f 255/3/6 257/3/6 260/3/6
f 257/3/6 258/3/6 260/3/6
f 260/3/6 258/3/6 261/3/6
f 259/3/6 260/3/6 261/3/6
f 261/3/6 258/3/6 262/3/6
f 259/3/6 261/3/6 263/3/6
f 263/3/6 261/3/6 264/3/6
f 264/3/6 261/3/6 265/3/6
f 265/3/6 261/3/6 266/3/6
